<svg width="24" height="32" viewBox="0 0 24 32" fill="none" xmlns="http://www.w3.org/2000/svg">
<path d="M4.28212 29.0977V24.9137H5.25639L7.56355 27.699H7.10331V24.9137H8.26287V29.0977H7.2886L4.98144 26.3123H5.44168V29.0977H4.28212ZM9.09766 29.0977V24.9137H10.2811V29.0977H9.09766ZM11.1231 29.0977V24.9137H12.0974L14.4045 27.699H13.9443V24.9137H15.1039V29.0977H14.1296L11.8224 26.3123H12.2827V29.0977H11.1231ZM16.8531 29.1814C16.5463 29.1814 16.2674 29.1295 16.0163 29.0259C15.7693 28.9184 15.5641 28.7649 15.4007 28.5657L16.0462 27.8006C16.1578 27.9441 16.2734 28.0537 16.3929 28.1294C16.5124 28.2011 16.638 28.237 16.7695 28.237C17.1201 28.237 17.2954 28.0337 17.2954 27.6273V25.8282H15.849V24.9137H18.467V27.5556C18.467 28.1015 18.3295 28.5099 18.0545 28.7809C17.7796 29.0479 17.3791 29.1814 16.8531 29.1814ZM18.6761 29.0977L20.523 24.9137H21.6886L23.5415 29.0977H22.3102L20.8637 25.4935H21.3299L19.8835 29.0977H18.6761ZM19.6862 28.2848L19.9911 27.4121H22.0352L22.3401 28.2848H19.6862Z" fill="#1C252F"/>
<path d="M6.31991 31.3002V30.3066H5.93091V30.1656H6.86938V30.3066H6.48037V31.3002H6.31991ZM6.81712 31.3002L7.33093 30.1656H7.49139L8.00682 31.3002H7.83663L7.37793 30.2563H7.44277L6.98407 31.3002H6.81712ZM7.03593 31.0165L7.0797 30.8869H7.71831L7.76531 31.0165H7.03593ZM8.67243 31.3131C8.58491 31.3131 8.5044 31.2991 8.43093 31.271C8.35745 31.2418 8.29369 31.2013 8.23966 31.1494C8.18564 31.0965 8.14349 31.0349 8.11324 30.9647C8.08298 30.8944 8.06786 30.8172 8.06786 30.7329C8.06786 30.6486 8.08298 30.5713 8.11324 30.5011C8.14349 30.4309 8.18564 30.3698 8.23966 30.3179C8.29477 30.265 8.35907 30.2245 8.43255 30.1964C8.50602 30.1672 8.58707 30.1526 8.67567 30.1526C8.76536 30.1526 8.84748 30.1672 8.92204 30.1964C8.9966 30.2255 9.05981 30.2693 9.11168 30.3277L9.01119 30.4282C8.96472 30.3828 8.91394 30.3498 8.85883 30.3293C8.8048 30.3077 8.74591 30.2969 8.68216 30.2969C8.61732 30.2969 8.55681 30.3077 8.50062 30.3293C8.44551 30.3509 8.39743 30.3812 8.35637 30.4201C8.31639 30.459 8.28505 30.5054 8.26236 30.5594C8.24075 30.6124 8.22994 30.6702 8.22994 30.7329C8.22994 30.7945 8.24075 30.8523 8.26236 30.9063C8.28505 30.9593 8.31639 31.0057 8.35637 31.0457C8.39743 31.0846 8.44551 31.1149 8.50062 31.1365C8.55573 31.1581 8.6157 31.1689 8.68054 31.1689C8.74105 31.1689 8.79886 31.1597 8.85397 31.1413C8.91016 31.1219 8.96202 31.09 9.00957 31.0457L9.10196 31.1689C9.04577 31.2164 8.97985 31.2526 8.90421 31.2775C8.82965 31.3013 8.75239 31.3131 8.67243 31.3131ZM8.94635 31.1478V30.7264H9.10196V31.1689L8.94635 31.1478ZM9.41228 31.3002V30.1656H9.57437V31.1592H10.1887V31.3002H9.41228ZM10.3747 31.3002V30.1656H10.5367V31.3002H10.3747ZM10.8764 31.3002V30.1656H11.0093L11.7598 31.0976H11.6901V30.1656H11.8522V31.3002H11.7193L10.9688 30.3682H11.0385V31.3002H10.8764ZM12.3393 30.6551H12.9228V30.7928H12.3393V30.6551ZM12.3539 31.1592H13.0152V31.3002H12.1918V30.1656H12.9925V30.3066H12.3539V31.1592ZM14.5266 30.1656H14.6887V31.3002H14.5266V30.1656ZM13.875 31.3002H13.7129V30.1656H13.875V31.3002ZM14.5412 30.7945H13.8588V30.6535H14.5412V30.7945ZM15.1758 30.6551H15.7593V30.7928H15.1758V30.6551ZM15.1904 31.1592H15.8517V31.3002H15.0283V30.1656H15.829V30.3066H15.1904V31.1592ZM16.1141 31.3002V30.1656H16.5566C16.656 30.1656 16.7408 30.1812 16.8111 30.2126C16.8813 30.2439 16.9353 30.2893 16.9732 30.3487C17.011 30.4082 17.0299 30.4789 17.0299 30.5611C17.0299 30.6432 17.011 30.714 16.9732 30.7734C16.9353 30.8317 16.8813 30.8766 16.8111 30.9079C16.7408 30.9393 16.656 30.9549 16.5566 30.9549H16.2033L16.2762 30.8804V31.3002H16.1141ZM16.8727 31.3002L16.5842 30.8885H16.7576L17.0493 31.3002H16.8727ZM16.2762 30.8966L16.2033 30.8172H16.5517C16.6555 30.8172 16.7338 30.795 16.7868 30.7507C16.8408 30.7053 16.8678 30.6421 16.8678 30.5611C16.8678 30.48 16.8408 30.4173 16.7868 30.373C16.7338 30.3287 16.6555 30.3066 16.5517 30.3066H16.2033L16.2762 30.2255V30.8966ZM17.4393 30.6551H18.0228V30.7928H17.4393V30.6551ZM17.4538 31.1592H18.1151V31.3002H17.2918V30.1656H18.0925V30.3066H17.4538V31.1592Z" fill="#607C8E"/>
<path d="M20.2481 19.3146C20.1882 19.3146 20.1288 19.3254 20.0705 19.3459C20.2561 19.4599 20.5926 19.7159 20.7199 20.1341C20.731 20.1704 20.7342 20.2086 20.7293 20.2462C20.7225 20.2984 20.659 20.764 20.5234 21.0576C20.5061 21.0953 20.4803 21.1271 20.4495 21.1522C20.5197 21.2387 20.629 21.3146 20.7977 21.3146C20.8269 21.3146 20.8578 21.3123 20.8907 21.3074C21.3412 21.2407 21.3261 20.6331 21.167 20.1258C21.0397 19.7198 20.6386 19.3146 20.2481 19.3146Z" fill="#1C252F"/>
<path d="M20.349 20.7613C20.4261 20.5069 20.4647 20.2118 20.4647 20.2118C20.322 19.7428 19.8326 19.5185 19.8326 19.5185L19.5858 19.8234C20.0305 20.145 20.2457 20.4979 20.349 20.7613Z" fill="#6D8B9F"/>
<path d="M18.1104 12.6131C18.2588 12.9446 18.6043 13.89 18.4669 15.2698C18.3686 16.2564 18.0426 17.2654 17.4979 18.2686C16.8239 19.5101 15.8106 20.7472 14.4859 21.9457C14.4765 21.9542 14.4661 21.9614 14.4556 21.9684C14.7097 22.3574 15.5326 23.3992 17.1207 23.515C17.1752 23.519 17.2294 23.521 17.2825 23.521C19.139 23.521 20.1792 21.1702 20.1792 21.1702C20.1792 21.1702 20.1588 20.4769 19.2617 19.9264C19.2617 19.9264 19.902 15.4413 18.3208 12.2866C18.2544 12.3977 18.1838 12.5063 18.1104 12.6131Z" fill="#1C252F"/>
<path d="M0 5.72128C0 5.72128 0.2012 5.68616 0.73256 5.68616C1.62704 5.68616 3.45872 5.78584 6.8436 6.3196C7.16664 5.78552 7.5732 5.3012 8.04664 4.88144C7.37016 4.78936 6.71408 4.71368 6.09656 4.66104C5.41584 4.60296 4.8088 4.59416 4.26872 4.57776C0.2588 4.45584 0 5.72128 0 5.72128Z" fill="#6D8B9F"/>
<path d="M19.4575 8.58073C19.2203 8.42977 19.1266 8.12769 19.2188 7.81113C19.3134 7.48609 19.5692 7.26777 19.8552 7.26777C19.8869 7.26777 19.9192 7.27049 19.951 7.27577C19.9851 7.28145 20.0272 7.29065 20.0754 7.30281C19.9663 7.10537 19.798 6.94457 19.5431 6.89049C19.4216 6.86473 19.3206 6.85289 19.2319 6.85289C19.0104 6.85289 18.8663 6.92737 18.6761 7.04233C18.9383 7.65105 19.1001 8.30697 19.1386 8.99321C19.3583 8.93905 19.5583 8.83945 19.7264 8.71577C19.6111 8.66513 19.5171 8.61865 19.4575 8.58073Z" fill="#1C252F"/>
<path d="M20.5718 2.07592C20.212 2.00112 19.8726 1.96736 19.5528 1.96736C18.9062 1.96736 18.3403 2.10544 17.8509 2.32096C17.8522 2.3324 17.8543 2.34352 17.8554 2.35512C17.9384 3.15128 17.6422 3.96096 16.9774 4.77272C17.2011 4.96112 17.4102 5.16408 17.6045 5.3792C17.619 5.37936 17.6338 5.37984 17.6482 5.37984C20.541 5.37984 20.5718 2.07592 20.5718 2.07592Z" fill="#1C252F"/>
<path d="M16.7706 4.60584C19.0967 1.76776 15.8006 0 15.8006 0C14.7524 1.27568 14.6904 2.57512 14.9206 3.59608C15.5978 3.83824 16.222 4.1808 16.7706 4.60584Z" fill="#1C252F"/>
<path d="M11.4535 22.9147C10.673 23.0823 10.6925 23.2569 10.6102 23.5147C10.5099 23.8286 10.8565 24.0687 11.11 24.1516C11.2159 24.1862 11.3226 24.2018 11.4284 24.2018C11.7496 24.2018 12.063 24.0581 12.3225 23.8655C12.3558 23.8408 12.4713 23.7237 12.5875 23.6101C12.3382 23.5465 11.8517 23.3706 11.4535 22.9147Z" fill="#1C252F"/>
<path d="M12.2095 21.1054C12.001 21.7185 11.6426 22.7265 11.6426 22.7265C12.132 23.2974 12.7845 23.379 12.7845 23.379C13.519 22.7558 13.9068 22.1696 14.0235 21.9773C13.5841 21.9018 12.698 21.6832 12.2095 21.1054Z" fill="#6D8B9F"/>
<path d="M11.0173 21.9326C10.8803 22.0127 10.6616 22.1041 10.3746 22.1041C10.1823 22.1041 9.98623 22.0622 9.79175 21.9798C9.74623 21.9605 9.70703 21.9289 9.67839 21.8886L9.63111 21.8221C8.46447 21.9634 8.38655 22.7283 8.72687 22.8353C8.81143 22.8618 8.95071 22.8741 9.11935 22.8741C9.66255 22.8741 10.5086 22.7467 10.7965 22.56C11.0443 22.3992 11.0455 22.1116 11.0173 21.9326Z" fill="#1C252F"/>
<path d="M9.89591 21.7342C10.0737 21.8096 10.2343 21.8373 10.3746 21.8373C10.7651 21.8373 10.997 21.622 10.997 21.622L10.7866 20.8241C10.5756 20.8728 10.1814 20.9486 9.77128 20.9486C9.60512 20.9486 9.45184 20.9358 9.31136 20.9109L9.89591 21.7342Z" fill="#6D8B9F"/>
<path d="M14.3069 21.7478C19.1697 17.3481 18.2932 13.8169 17.9264 12.8664C16.9324 14.1639 15.4104 15.0862 13.6544 15.358L13.5864 15.6627C13.262 17.595 12.1864 20.5244 12.1864 20.5244C12.5126 21.5846 14.3069 21.7478 14.3069 21.7478Z" fill="#1C252F"/>
<path d="M9.77127 20.6819C10.3318 20.6819 10.8712 20.5278 10.8712 20.5278C11.1974 19.685 12.2067 19.369 12.2067 19.369L12.8653 17.2879C12.81 17.255 12.7666 17.2029 12.7466 17.138C12.4967 16.3276 11.779 15.579 11.5666 15.3702C11.1851 15.3154 10.8152 15.2283 10.4582 15.1149C10.4428 15.1148 10.4278 15.1146 10.4122 15.1146C9.35143 15.1146 7.80159 15.3602 7.74815 16.7862C7.66655 18.9612 8.88663 20.4734 8.88663 20.4734C9.12383 20.6316 9.45095 20.6819 9.77127 20.6819Z" fill="#1C252F"/>
<path d="M13.0015 17.0594L13.3727 15.3954C13.1106 15.4251 12.8444 15.4422 12.5737 15.4422C12.3737 15.4422 12.1761 15.4325 11.9805 15.4161C12.3006 15.7673 12.7941 16.3868 13.0015 17.0594Z" fill="#1C252F"/>
<path d="M12.5738 3.45799C9.09032 3.45799 6.26648 6.08103 6.26648 9.31671C6.26648 12.5524 9.09032 15.1754 12.5738 15.1754C16.0572 15.1754 18.881 12.5524 18.881 9.31671C18.8811 6.08103 16.0572 3.45799 12.5738 3.45799ZM7.40472 10.7323C7.27672 9.82143 8.33592 9.52815 9.92384 9.30495C10.6403 9.20431 11.4642 9.11791 12.3357 8.99543C13.207 8.87303 14.023 8.72895 14.7394 8.62823C16.3275 8.40503 17.4263 8.39503 17.5543 9.30599C17.7401 10.6278 15.6186 12.0187 12.8158 12.4126C10.0131 12.8065 7.59048 12.0542 7.40472 10.7323Z" fill="#1C252F"/>
<path d="M20.8386 8.73217C21.1718 8.73217 21.3698 8.22313 21.0915 7.99857C20.7987 7.76233 20.2572 7.5972 19.9071 7.5388C19.8895 7.53584 19.8722 7.53448 19.8552 7.53448C19.4978 7.53448 19.2945 8.16065 19.6008 8.35561C19.8624 8.52209 20.4206 8.66945 20.7852 8.72785C20.8033 8.73081 20.8211 8.73217 20.8386 8.73217Z" fill="#6D8B9F"/>
<path d="M10.3784 11.4962C10.8413 11.4311 11.1784 11.0431 11.196 10.592L9.38207 10.1566C9.30823 10.3166 9.27727 10.4988 9.30367 10.6864C9.37687 11.2067 9.85799 11.5693 10.3784 11.4962Z" fill="#1C252F"/>
<path d="M14.5086 10.9155C15.029 10.8424 15.3915 10.3612 15.3183 9.8408C15.2919 9.6532 15.212 9.48672 15.0969 9.35312L13.4734 10.2718C13.6146 10.7006 14.0457 10.9806 14.5086 10.9155Z" fill="#1C252F"/>
<path d="M15.6972 4.09152C15.6972 4.09152 15.5454 2.75568 16.0463 2.05736C16.0463 2.05736 16.5473 3.01368 16.1982 4.37992" fill="white"/>
<path d="M17.1545 4.27368C17.1545 4.27368 17.7617 3.65128 18.6877 3.54504C18.6877 3.54504 18.1867 4.47104 16.8964 5.01752C16.8964 5.01752 16.9419 4.77464 16.9723 4.71392" fill="white"/>
<path d="M13.4032 21.6217C13.4032 21.6217 14.4166 21.0366 15.0529 20.48C15.0529 20.48 14.4028 21.3118 13.8307 21.8049L13.4032 21.6217Z" fill="white"/>
<path d="M10.4068 20.7101C10.3954 20.6759 10.1221 19.6626 10.6117 18.9112C10.6117 18.9112 10.4068 19.7082 10.7142 20.6873L10.3613 20.7214" fill="white"/>
<path d="M19.3101 19.6968C19.3101 19.6968 18.8091 20.3344 18.2171 20.767C18.2171 20.767 18.9116 20.471 19.4354 19.9587L19.3101 19.6968Z" fill="white"/>
<path d="M19.5382 18.643C19.5382 18.643 18.8237 18.0119 17.9921 17.9354C17.9921 17.9354 18.491 17.7743 19.6647 18.1652L19.5382 18.643Z" fill="white"/>
<path d="M7.53224 5.42544C7.53224 5.42544 2.7704 4.69384 0.903519 5.31192C0.903519 5.31192 2.70736 5.02176 7.3872 5.70296L7.53224 5.42544Z" fill="white"/>
<path d="M21.0435 7.92775C21.0435 7.92775 20.6177 8.10279 20.7644 8.55687C20.7644 8.55687 20.7928 8.10279 21.1522 8.02711L21.0435 7.92775Z" fill="white"/>
<path d="M22.6158 29.7722L22.7794 30.151L23.1582 30.3147L22.7794 30.4784L22.6158 30.8572L22.4521 30.4784L22.0732 30.3147L22.4521 30.151L22.6158 29.7722Z" fill="#1C252F"/>
<path d="M4.76232 9.3576L5.04064 10.0017L5.68464 10.28L5.04064 10.5583L4.76232 11.2023L4.484 10.5583L3.83992 10.28L4.484 10.0017L4.76232 9.3576Z" fill="#6D8B9F"/>
<path d="M21.5337 17.9277L21.75 18.4282L22.2504 18.6444L21.75 18.8606L21.5337 19.3611L21.3174 18.8606L20.817 18.6444L21.3174 18.4282L21.5337 17.9277Z" fill="#6D8B9F"/>
<path d="M9.69576 23.4094L9.8668 23.8054L10.2627 23.9764L9.8668 24.1474L9.69576 24.5434L9.52464 24.1474L9.1288 23.9764L9.52464 23.8054L9.69576 23.4094Z" fill="#6D8B9F"/>
<path d="M5.71864 11.3173L5.882 11.6954L6.26008 11.8587L5.882 12.0221L5.71864 12.4002L5.55528 12.0221L5.17728 11.8587L5.55528 11.6954L5.71864 11.3173Z" fill="#6D8B9F"/>
<path d="M5.09528 29.7722L5.25904 30.151L5.63784 30.3147L5.25904 30.4784L5.09528 30.8572L4.9316 30.4784L4.5528 30.3147L4.9316 30.151L5.09528 29.7722Z" fill="#1C252F"/>
</svg>
