<?xml version="1.0" encoding="utf-8"?>
<!-- Generator: Adobe Illustrator 27.5.0, SVG Export Plug-In . SVG Version: 6.00 Build 0)  -->
<svg version="1.1" xmlns="http://www.w3.org/2000/svg" xmlns:xlink="http://www.w3.org/1999/xlink" x="0px" y="0px"
	 viewBox="0 0 500 500" style="enable-background:new 0 0 500 500;" xml:space="preserve">
<g id="BACKGROUND">
	<rect style="fill:#FFFFFF;" width="500" height="500"/>
</g>
<g id="OBJECTS">
	<g>
		
			<text transform="matrix(1 0 0 1 130.3726 412.7117)" style="fill:#1C252F; font-family:'Montserrat-ExtraBold'; font-size:74.7138px;">NINJA</text>
		
			<text transform="matrix(1 0 0 1 156.1314 435.7898)" style="fill:#607C8E; font-family:'Montserrat-Medium'; font-size:20.2606px; letter-spacing:4;">TAGLINE HERE</text>
		<g>
			<path style="fill:#1C252F;" d="M335.177,290.709c-0.748,0-1.491,0.136-2.22,0.392c2.32,1.425,6.527,4.625,8.118,9.852
				c0.138,0.454,0.178,0.932,0.117,1.402c-0.085,0.652-0.879,6.472-2.573,10.142c-0.217,0.471-0.539,0.869-0.924,1.182
				c0.877,1.082,2.243,2.03,4.352,2.03c0.365,0,0.752-0.028,1.163-0.089c5.631-0.834,5.442-8.429,3.454-14.771
				C345.072,295.774,340.059,290.709,335.177,290.709z"/>
			<path style="fill:#6D8B9F;" d="M336.439,308.793c0.963-3.18,1.446-6.869,1.446-6.869c-1.784-5.862-7.901-8.666-7.901-8.666
				l-3.085,3.811C332.457,301.089,335.147,305.501,336.439,308.793z"/>
			<path style="fill:#1C252F;" d="M308.456,206.941c1.855,4.143,6.174,15.961,4.456,33.209
				c-1.228,12.332-5.303,24.944-12.112,37.485c-8.425,15.518-21.092,30.982-37.65,45.963c-0.118,0.107-0.248,0.196-0.379,0.284
				c3.176,4.863,13.463,17.885,33.314,19.333c0.681,0.05,1.358,0.074,2.022,0.074c23.206,0,36.209-29.385,36.209-29.385
				s-0.255-8.666-11.469-15.547c0,0,8.004-56.064-11.761-95.497C310.256,204.248,309.374,205.606,308.456,206.941z"/>
			<path style="fill:#6D8B9F;" d="M82.076,120.793c0,0,2.515-0.439,9.157-0.439c11.181,0,34.077,1.246,76.388,7.918
				c4.038-6.676,9.12-12.73,15.038-17.977c-8.456-1.151-16.657-2.097-24.376-2.755c-8.509-0.726-16.097-0.836-22.848-1.041
				C85.311,104.975,82.076,120.793,82.076,120.793z"/>
			<path style="fill:#1C252F;" d="M325.295,156.536c-2.965-1.887-4.137-5.663-2.984-9.62c1.183-4.063,4.38-6.792,7.955-6.792
				c0.397,0,0.8,0.034,1.197,0.1c0.427,0.071,0.953,0.186,1.556,0.338c-1.364-2.468-3.468-4.478-6.654-5.154
				c-1.519-0.322-2.782-0.47-3.89-0.47c-2.769,0-4.57,0.931-6.948,2.368c3.278,7.609,5.3,15.808,5.781,24.386
				c2.747-0.677,5.247-1.922,7.348-3.468C327.215,157.591,326.04,157.01,325.295,156.536z"/>
			<path style="fill:#1C252F;" d="M339.224,75.226c-4.498-0.935-8.741-1.357-12.738-1.357c-8.083,0-15.156,1.726-21.274,4.42
				c0.017,0.143,0.043,0.282,0.057,0.427c1.037,9.952-2.665,20.073-10.976,30.22c2.797,2.355,5.411,4.892,7.839,7.581
				c0.181,0.002,0.366,0.008,0.546,0.008C338.839,116.525,339.224,75.226,339.224,75.226z"/>
			<path style="fill:#1C252F;" d="M291.709,106.85c29.076-35.476-12.126-57.573-12.126-57.573
				c-13.102,15.946-13.877,32.189-11,44.951C277.049,97.255,284.851,101.537,291.709,106.85z"/>
			<path style="fill:#1C252F;" d="M225.245,335.711c-9.756,2.095-9.513,4.277-10.542,7.5c-1.253,3.924,3.079,6.925,6.248,7.961
				c1.324,0.433,2.657,0.628,3.98,0.628c4.015,0,7.933-1.797,11.176-4.204c0.417-0.309,1.86-1.773,3.313-3.193
				C236.303,343.608,230.222,341.41,225.245,335.711z"/>
			<path style="fill:#6D8B9F;" d="M234.695,313.095c-2.606,7.663-7.086,20.263-7.086,20.263c6.117,7.137,14.273,8.156,14.273,8.156
				c9.181-7.79,14.029-15.117,15.488-17.521C251.877,323.049,240.801,320.317,234.695,313.095z"/>
			<path style="fill:#1C252F;" d="M219.792,323.435c-1.712,1.001-4.446,2.143-8.034,2.143c-2.403,0-4.854-0.523-7.285-1.554
				c-0.569-0.241-1.059-0.636-1.417-1.139l-0.591-0.832c-14.583,1.766-15.557,11.328-11.303,12.665
				c1.057,0.332,2.798,0.485,4.906,0.485c6.79,0,17.366-1.592,20.964-3.926C220.13,329.267,220.145,325.672,219.792,323.435z"/>
			<path style="fill:#6D8B9F;" d="M205.775,320.954c2.222,0.943,4.23,1.289,5.983,1.289c4.882,0,7.781-2.691,7.781-2.691
				l-2.631-9.974c-2.637,0.609-7.564,1.557-12.691,1.557c-2.077,0-3.993-0.16-5.749-0.472L205.775,320.954z"/>
			<path style="fill:#1C252F;" d="M260.913,321.124c60.785-54.996,49.828-99.136,45.243-111.017
				c-12.425,16.219-31.45,27.747-53.4,31.145l-0.85,3.809c-4.055,24.153-17.5,60.771-17.5,60.771
				C238.484,319.085,260.913,321.124,260.913,321.124z"/>
			<path style="fill:#1C252F;" d="M204.217,307.801c7.006,0,13.749-1.927,13.749-1.927c4.078-10.535,16.694-14.485,16.694-14.485
				l8.232-26.013c-0.691-0.412-1.234-1.063-1.484-1.874c-3.123-10.13-12.094-19.487-14.75-22.097
				c-4.768-0.686-9.392-1.774-13.855-3.192c-0.192-0.001-0.38-0.004-0.575-0.004c-13.259,0-32.632,3.07-33.3,20.896
				c-1.02,27.187,14.231,46.09,14.231,46.09C196.124,307.172,200.213,307.801,204.217,307.801z"/>
			<polygon style="fill:#1C252F;" points="212.23,238.032 212.23,238.032 212.23,238.209 			"/>
			<path style="fill:#1C252F;" d="M244.595,262.52l4.64-20.801c-3.276,0.372-6.604,0.586-9.987,0.586
				c-2.501,0-4.97-0.122-7.415-0.327C235.834,246.368,242.003,254.112,244.595,262.52z"/>
			<path style="fill:#1C252F;" d="M239.248,92.502c-43.543,0-78.841,32.788-78.841,73.234c0,40.446,35.298,73.234,78.841,73.234
				c43.543,0,78.841-32.788,78.841-73.234C318.09,125.29,282.791,92.502,239.248,92.502z M174.635,183.431
				c-1.6-11.386,11.64-15.052,31.489-17.842c8.956-1.258,19.255-2.338,30.148-3.869c10.891-1.53,21.092-3.331,30.046-4.59
				c19.852-2.79,33.587-2.915,35.187,8.472c2.322,16.523-24.197,33.909-59.231,38.833
				C207.24,209.358,176.957,199.954,174.635,183.431z"/>
			<path style="fill:#6D8B9F;" d="M342.558,158.429c4.166,0,6.64-6.363,3.162-9.17c-3.66-2.953-10.429-5.017-14.805-5.747
				c-0.22-0.037-0.437-0.054-0.649-0.054c-4.467,0-7.009,7.827-3.18,10.264c3.27,2.081,10.247,3.923,14.805,4.653
				C342.117,158.412,342.34,158.429,342.558,158.429z"/>
			<path style="fill:#1C252F;" d="M211.806,192.979c5.786-0.813,10-5.663,10.22-11.302l-22.674-5.443
				c-0.923,2.001-1.31,4.278-0.98,6.623C199.287,189.361,205.301,193.893,211.806,192.979z"/>
			<path style="fill:#1C252F;" d="M263.433,185.721c6.505-0.914,11.037-6.929,10.122-13.434c-0.33-2.345-1.329-4.426-2.768-6.096
				l-20.294,11.484C252.259,183.034,257.647,186.534,263.433,185.721z"/>
			<path style="fill:#FFFFFF;" d="M278.291,100.421c0,0-1.897-16.698,4.364-25.427c0,0,6.262,11.954,1.898,29.032"/>
			<path style="fill:#FFFFFF;" d="M296.507,102.698c0,0,7.59-7.78,19.165-9.108c0,0-6.262,11.575-22.391,18.406
				c0,0,0.569-3.036,0.949-3.795"/>
			<path style="fill:#FFFFFF;" d="M249.616,319.548c0,0,12.667-7.313,20.621-14.271c0,0-8.126,10.397-15.277,16.561L249.616,319.548
				z"/>
			<path style="fill:#FFFFFF;" d="M212.161,308.153c-0.142-0.427-3.558-13.093,2.562-22.486c0,0-2.562,9.962,1.281,22.201
				l-4.412,0.427"/>
			<path style="fill:#FFFFFF;" d="M323.452,295.487c0,0-6.262,7.97-13.662,13.378c0,0,8.681-3.7,15.228-10.104L323.452,295.487z"/>
			<path style="fill:#FFFFFF;" d="M326.304,282.314c0,0-8.932-7.888-19.327-8.844c0,0,6.237-2.014,20.908,2.872L326.304,282.314z"/>
			<path style="fill:#FFFFFF;" d="M176.229,117.095c0,0-59.523-9.145-82.859-1.419c0,0,22.548-3.627,81.046,4.888L176.229,117.095z"
				/>
			<path style="fill:#FFFFFF;" d="M345.12,148.374c0,0-5.322,2.188-3.489,7.864c0,0,0.355-5.676,4.848-6.622L345.12,148.374z"/>
		</g>
		<polygon style="fill:#1C252F;" points="364.773,421.429 366.819,426.164 371.554,428.211 366.819,430.257 364.773,434.992 
			362.727,430.257 357.991,428.211 362.727,426.164 		"/>
		<polygon style="fill:#6D8B9F;" points="141.605,166.247 145.084,174.298 153.134,177.777 145.084,181.256 141.605,189.306 
			138.126,181.256 130.075,177.777 138.126,174.298 		"/>
		<polygon style="fill:#6D8B9F;" points="351.247,273.373 353.951,279.629 360.206,282.332 353.951,285.035 351.247,291.291 
			348.544,285.035 342.289,282.332 348.544,279.629 		"/>
		<polygon style="fill:#6D8B9F;" points="203.273,341.895 205.411,346.844 210.36,348.982 205.411,351.12 203.273,356.069 
			201.134,351.12 196.186,348.982 201.134,346.844 		"/>
		<polygon style="fill:#6D8B9F;" points="153.559,190.743 155.601,195.469 160.327,197.511 155.601,199.553 153.559,204.279 
			151.517,199.553 146.792,197.511 151.517,195.469 		"/>
		<polygon style="fill:#1C252F;" points="145.767,421.429 147.814,426.164 152.549,428.211 147.814,430.257 145.767,434.992 
			143.721,430.257 138.986,428.211 143.721,426.164 		"/>
	</g>
</g>
</svg>
