<svg width="16" height="16" viewBox="0 0 16 16" fill="none" xmlns="http://www.w3.org/2000/svg">
<path d="M11.0864 9.26061L11.39 8.95868L10.6849 8.24954L10.3813 8.55148L11.0864 9.26061ZM12.4098 8.83221L13.6834 9.52461L14.161 8.64608L12.8874 7.95368L12.4098 8.83221ZM13.9286 10.9007L12.9816 11.8424L13.6866 12.5515L14.6337 11.6099L13.9286 10.9007ZM12.4045 12.1456C11.4379 12.2357 8.93709 12.1554 6.22948 9.46314L5.52438 10.1723C8.47909 13.1102 11.2913 13.2537 12.4973 13.1413L12.4045 12.1456ZM6.22948 9.46314C3.64856 6.89688 3.22103 4.73844 3.16781 3.80204L2.16942 3.85878C2.2364 5.03734 2.76578 7.42934 5.52438 10.1723L6.22948 9.46314ZM7.14636 5.34295L7.33756 5.15282L6.63249 4.44371L6.44128 4.63383L7.14636 5.34295ZM7.48976 2.72935L6.64912 1.60642L5.8486 2.20571L6.68922 3.32865L7.48976 2.72935ZM3.82178 1.362L2.77538 2.40246L3.48047 3.11158L4.52687 2.07112L3.82178 1.362ZM6.79382 4.98839C6.44128 4.63383 6.4408 4.6343 6.44032 4.63478C6.44016 4.63494 6.43968 4.63543 6.43936 4.63576C6.4387 4.63642 6.43804 4.63708 6.43736 4.63777C6.43601 4.63915 6.43461 4.64058 6.43317 4.64208C6.43028 4.64507 6.42723 4.64831 6.42402 4.6518C6.41758 4.65878 6.41052 4.66677 6.40296 4.67579C6.38785 4.69382 6.37072 4.71603 6.35272 4.7426C6.31664 4.79586 6.27732 4.86628 6.24395 4.95484C6.17586 5.13554 6.13936 5.37374 6.18512 5.66871C6.27462 6.24556 6.67189 7.00754 7.68956 8.01941L8.39462 7.31028C7.44229 6.36334 7.21542 5.78707 7.17329 5.5154C7.15322 5.38612 7.17402 5.32248 7.17976 5.30742C7.18322 5.2981 7.18489 5.29714 7.18062 5.30351C7.17849 5.30662 7.17496 5.3115 7.16942 5.31806C7.16669 5.32135 7.16342 5.32507 7.15962 5.32922C7.15769 5.33129 7.15569 5.33347 7.15342 5.33576C7.15236 5.3369 7.15122 5.33807 7.15002 5.33927C7.14942 5.33987 7.14882 5.34048 7.14822 5.34109C7.14796 5.3414 7.14749 5.34186 7.14729 5.34202C7.14682 5.34248 7.14636 5.34295 6.79382 4.98839ZM7.68956 8.01941C8.70756 9.03161 9.47309 9.42554 10.0509 9.51421C10.3462 9.55948 10.5842 9.52334 10.7648 9.45608C10.8534 9.42308 10.9239 9.38421 10.9772 9.34848C11.0039 9.33061 11.0262 9.31361 11.0442 9.29861C11.0533 9.29114 11.0613 9.28414 11.0683 9.27774C11.0718 9.27454 11.0751 9.27154 11.0781 9.26868C11.0796 9.26721 11.081 9.26581 11.0824 9.26448C11.0831 9.26381 11.0838 9.26314 11.0844 9.26248C11.0848 9.26214 11.0853 9.26168 11.0854 9.26154C11.0859 9.26108 11.0864 9.26061 10.7338 8.90601C10.3813 8.55148 10.3818 8.55101 10.3822 8.55054C10.3824 8.55041 10.3828 8.54994 10.3832 8.54961C10.3838 8.54901 10.3844 8.54841 10.385 8.54781C10.3862 8.54668 10.3874 8.54554 10.3885 8.54441C10.3908 8.54221 10.393 8.54021 10.3951 8.53828C10.3992 8.53454 10.403 8.53128 10.4063 8.52861C10.4128 8.52314 10.4177 8.51968 10.4207 8.51761C10.4269 8.51348 10.4256 8.51534 10.4158 8.51901C10.3994 8.52508 10.334 8.54594 10.2026 8.52574C9.92702 8.48354 9.34669 8.25688 8.39462 7.31028L7.68956 8.01941ZM6.64912 1.60642C5.96958 0.69869 4.63333 0.555056 3.82178 1.362L4.52687 2.07112C4.88132 1.71868 5.51084 1.75455 5.8486 2.20571L6.64912 1.60642ZM3.16781 3.80204C3.1547 3.5713 3.26052 3.33028 3.48047 3.11158L2.77538 2.40246C2.41716 2.75864 2.13555 3.26284 2.16942 3.85878L3.16781 3.80204ZM12.9816 11.8424C12.7984 12.0246 12.602 12.1272 12.4045 12.1456L12.4973 13.1413C12.987 13.0956 13.3883 12.8482 13.6866 12.5515L12.9816 11.8424ZM7.33756 5.15282C7.99389 4.50021 8.04269 3.46794 7.48976 2.72935L6.68922 3.32865C6.95822 3.68797 6.91822 4.1596 6.63249 4.44371L7.33756 5.15282ZM13.6834 9.52461C14.2286 9.82101 14.3136 10.5179 13.9286 10.9007L14.6337 11.6099C15.5272 10.7214 15.2517 9.23894 14.161 8.64608L13.6834 9.52461ZM11.39 8.95868C11.646 8.70414 12.0581 8.64108 12.4098 8.83221L12.8874 7.95368C12.165 7.56094 11.2684 7.66941 10.6849 8.24954L11.39 8.95868Z" fill="white"/>
</svg>
